<svg xmlns="http://www.w3.org/2000/svg" viewBox="0 0 460 300" style="width:100%;display:block"><rect width="460" height="300" fill="#140f1e"/><rect width="460" height="300" fill="url(#nglow)"/><defs><radialGradient id="nglow" cx="50%" cy="90%" r="70%"><stop offset="0" stop-color="#8a4cff" stop-opacity=".35"/><stop offset="60%" stop-color="#8a4cff" stop-opacity="0"/></radialGradient></defs><polygon points="30,300 230,190 430,300" fill="#1d1630"/><ellipse cx="230" cy="270" rx="150" ry="22" fill="#ff2e9a" opacity=".25"/><rect x="70" y="70" width="70" height="150" rx="8" fill="#241a3a"/><rect x="320" y="60" width="70" height="160" rx="8" fill="#241a3a"/><circle cx="105" cy="120" r="26" fill="#0fd4e6"/><circle cx="105" cy="120" r="26" fill="#0fd4e6" opacity=".5"/><rect x="335" y="96" width="42" height="12" rx="6" fill="#ff2e9a"/><rect x="335" y="116" width="42" height="12" rx="6" fill="#ffd023"/><rect x="335" y="136" width="30" height="12" rx="6" fill="#0fd4e6"/><ellipse cx="230" cy="150" rx="40" ry="42" fill="#fff"/><ellipse cx="230" cy="150" rx="40" ry="42" fill="#0fd4e6" opacity=".22"/><ellipse cx="218" cy="146" rx="8" ry="10" fill="#fff" stroke="#191225" stroke-width="3"/><ellipse cx="242" cy="146" rx="8" ry="10" fill="#fff" stroke="#191225" stroke-width="3"/><circle cx="219" cy="149" r="4" fill="#191225"/><circle cx="243" cy="149" r="4" fill="#191225"/><circle cx="150" cy="250" r="10" fill="#b4f531"/><circle cx="300" cy="256" r="8" fill="#ff2e9a"/></svg>